<svg width="48" height="48" viewBox="0 0 48 48" fill="none" xmlns="http://www.w3.org/2000/svg">
<g clip-path="url(#clip0_10270_11234)">
<path d="M30.246 32.1395C29.9223 32.0872 29.6022 32.1587 29.364 32.365L27.4294 34.0403C26.718 34.656 25.83 35.04 24.8574 35.1692C25.8811 36.3205 27.4741 36.661 28.5386 35.9491C28.8094 35.768 29.0698 35.5713 29.3189 35.3593L30.9921 33.9339C31.2951 33.6758 31.3954 33.264 31.3004 32.8541C31.2544 32.7822 31.2025 32.713 31.1432 32.647C30.8914 32.3646 30.5666 32.1913 30.246 32.1395Z" fill="url(#paint0_linear_10270_11234)"/>
<path d="M34.1991 34.5687L31.1607 36.1273C30.7085 36.3592 30.2473 36.5681 29.7789 36.7537C27.9374 37.4839 25.842 36.6907 24.9336 34.9302C26.3713 34.9622 27.8088 34.6347 29.1052 33.959L32.6313 32.1203C33.0653 31.8938 33.5521 31.8656 33.9858 32.0041C34.4155 32.1412 34.7939 32.4423 35.0176 32.8744C35.0181 32.8754 35.0187 32.8764 35.0192 32.8774C35.1219 33.0743 35.1402 33.3075 35.0755 33.52C34.9425 33.9571 34.6396 34.3427 34.1991 34.5687Z" fill="url(#paint1_linear_10270_11234)"/>
<path d="M36.6616 36.7778L32.4262 37.8681C31.7959 38.0301 31.1609 38.1611 30.5233 38.2609C28.0168 38.6537 25.6227 37.0718 24.9844 34.6163C26.7715 35.0618 28.6597 35.058 30.4699 34.5795L35.3936 33.2769C35.9997 33.1163 36.6159 33.2185 37.1186 33.5137C37.6167 33.8062 38.0045 34.2891 38.1622 34.892C38.1626 34.8934 38.163 34.8948 38.1634 34.8962C38.24 35.1858 38.1837 35.4953 38.0305 35.7528C37.7384 36.2432 37.2604 36.6237 36.6616 36.7778Z" fill="url(#paint2_linear_10270_11234)"/>
<path d="M36.6084 8.3346L29.5332 23.3243L22.4581 8.3346C22.32 8.04207 22.3805 7.69433 22.6092 7.4656C23.23 6.8448 24.2365 6.8448 24.8572 7.4656L25.5092 8.1176C26.13 8.7384 27.1364 8.7384 27.7572 8.1176L28.4092 7.4656C29.03 6.8448 30.0364 6.8448 30.6572 7.4656L31.3092 8.1176C31.93 8.7384 32.9364 8.7384 33.5572 8.1176L34.2092 7.4656C34.83 6.8448 35.8364 6.8448 36.4572 7.4656C36.686 7.69433 36.7464 8.04207 36.6084 8.3346Z" fill="url(#paint3_linear_10270_11234)"/>
<path d="M33.5573 8.1176C32.9365 8.73833 31.9301 8.73833 31.3093 8.1176L30.6573 7.4656C30.0365 6.8448 29.0301 6.8448 28.4093 7.4656L27.7573 8.1176C27.1365 8.73833 26.1301 8.73833 25.5093 8.1176L25.2461 7.8544L29.5333 23.3243L33.8205 7.8544L33.5573 8.1176Z" fill="url(#paint4_linear_10270_11234)"/>
<path d="M36.4582 7.4656C35.8374 6.8448 34.831 6.8448 34.2102 7.4656L33.5582 8.1176C32.9374 8.73833 31.931 8.73833 31.3102 8.1176L30.6582 7.4656C30.3704 7.17787 29.9997 7.02527 29.623 7.00427V23.1359L36.6093 8.3346C36.7474 8.04207 36.6869 7.69433 36.4582 7.4656Z" fill="url(#paint5_linear_10270_11234)"/>
<path d="M29.4215 23.0892H29.6437L35.0769 11.5781H23.9883L29.4215 23.0892Z" fill="url(#paint6_linear_10270_11234)"/>
<path d="M29.5331 38.3337C35.8659 38.3337 40.9997 33.1999 40.9997 26.8671C40.9997 20.5342 35.8659 15.4004 29.5331 15.4004C23.2002 15.4004 18.0664 20.5342 18.0664 26.8671C18.0664 33.1999 23.2002 38.3337 29.5331 38.3337Z" fill="url(#paint7_linear_10270_11234)"/>
<path d="M29.5331 38.3341C33.0985 38.3341 36.2837 36.7068 38.3868 34.1545L22.246 18.0137C19.6937 20.1168 18.0664 23.302 18.0664 26.8674C18.0664 33.2003 23.2002 38.3341 29.5331 38.3341Z" fill="url(#paint8_linear_10270_11234)"/>
<path d="M29.5324 15.4004C27.9848 15.4004 26.5091 15.7077 25.1621 16.2635L40.136 31.2373C40.6917 29.8903 40.999 28.4147 40.999 26.8671C40.999 20.5342 35.8652 15.4004 29.5324 15.4004Z" fill="url(#paint9_linear_10270_11234)"/>
<path d="M27.1445 24.0449L28.9223 25.8227H29.5779V24.0449H27.1445Z" fill="url(#paint10_linear_10270_11234)"/>
<path d="M29.7227 38.3311C35.4074 38.2392 40.086 34.0112 40.8807 28.5249L32.4672 20.1113H30.0828C28.8591 20.1113 27.8672 21.1033 27.8672 22.3269C27.8672 22.9145 28.1006 23.4781 28.5161 23.8936L29.7227 25.1002V38.3311Z" fill="url(#paint11_linear_10270_11234)"/>
<path d="M31.7997 26.1992H18.0862C18.0735 26.4199 18.0664 26.642 18.0664 26.8659C18.0664 33.1988 23.2002 38.3326 29.5331 38.3326C33.4489 38.3326 36.9056 36.3692 38.9743 33.3738L31.7997 26.1992Z" fill="url(#paint12_linear_10270_11234)"/>
<path d="M30.2056 23.2708V21.2491C31.1058 21.3183 31.3688 21.7614 31.8257 21.7614C32.435 21.7614 32.6843 20.9998 32.6843 20.6259C32.6843 19.6705 31.0642 19.4489 30.2056 19.4213V19.0751C30.2056 18.8812 29.9426 18.7012 29.6796 18.7012C29.375 18.7012 29.1534 18.8812 29.1534 19.0751V19.4627C27.6856 19.6705 26.384 20.5152 26.384 22.2738C26.384 24.0462 27.8794 24.6416 29.1534 25.1262V27.3694C28.1287 27.1893 27.658 26.3724 27.0764 26.3724C26.5502 26.3724 26.1348 27.0648 26.1348 27.5355C26.1348 28.4217 27.4917 29.2803 29.1534 29.3356V29.6818C29.1534 29.8757 29.375 30.0558 29.6796 30.0558C29.9426 30.0558 30.2056 29.8757 30.2056 29.6818V29.2803C31.8257 29.0172 32.9336 27.9786 32.9336 26.2617C32.9336 24.3924 31.4658 23.7415 30.2056 23.2708ZM29.2918 22.9384C28.7656 22.717 28.4056 22.4677 28.4056 22.066C28.4056 21.7338 28.6687 21.4152 29.2918 21.2907V22.9384ZM30.0673 27.3556V25.5001C30.5658 25.7355 30.912 26.0263 30.912 26.4832C30.912 26.9817 30.538 27.2449 30.0673 27.3556Z" fill="url(#paint13_linear_10270_11234)"/>
<path d="M31.8008 26.1992H30.8613C30.8938 26.286 30.912 26.3795 30.912 26.4817C30.912 26.9802 30.538 27.2434 30.0673 27.3541V26.1992H29.1534V27.3679C28.1287 27.1878 27.658 26.371 27.0764 26.371C26.5502 26.371 26.1348 27.0633 26.1348 27.534C26.1348 28.4202 27.4917 29.2788 29.1534 29.3342V29.6804C29.1534 29.8742 29.375 30.0543 29.6796 30.0543C29.9426 30.0543 30.2056 29.8742 30.2056 29.6804V29.2788C31.503 29.0682 32.4712 28.3596 32.8057 27.2042L31.8008 26.1992Z" fill="url(#paint14_linear_10270_11234)"/>
<path d="M33.5855 15.0977H25.4808C25.1268 15.0977 24.8398 15.3847 24.8398 15.7387C24.8398 16.0927 25.1268 16.3797 25.4808 16.3797H33.5856C33.9396 16.3797 34.2266 16.0927 34.2266 15.7387C34.2266 15.3847 33.9396 15.0977 33.5855 15.0977Z" fill="url(#paint15_linear_10270_11234)"/>
<path d="M11.1289 33.9731V25.8908C11.1289 25.4495 11.377 25.0456 11.7706 24.846L14.4195 23.5029C15.4958 22.9563 16.7248 22.7598 17.909 22.9931C17.9642 23.0035 18.0193 23.0155 18.0744 23.0283C18.0832 23.0307 18.092 23.0323 18.1008 23.0347C19.0564 23.2536 21.7645 24.4426 22.8249 24.9165C23.1357 25.0555 23.457 25.1705 23.7878 25.2505C25.7375 25.7243 27.7608 25.7859 29.7273 25.4359C30.719 25.2601 31.6858 25.7603 32.1261 26.6281C32.1892 26.7527 32.242 26.8853 32.2819 27.0244C32.6319 28.239 31.9112 29.5071 30.6862 29.8203C28.5526 30.3661 26.3712 30.7145 24.1713 30.8607L24.041 30.9215C23.5672 31.1428 23.4737 31.6351 23.8341 32.0138C25.8989 34.1881 26.6332 34.5796 28.5183 35.4043C30.7741 36.3895 33.3016 36.6181 35.6724 35.9572C35.7602 35.9333 35.8482 35.9077 35.9352 35.8813L37.9537 35.1965C39.201 34.8169 40.5243 35.5241 40.8999 36.7731C41.2754 38.0164 40.5707 39.3237 39.3265 39.6929L38.016 40.1331C32.6934 41.7137 26.9481 41.1184 22.0498 38.4767L18.9374 36.7675L16.982 35.6695C16.322 35.2987 15.5836 35.123 14.8485 35.1445H12.3003C11.6534 35.1446 11.1289 34.6201 11.1289 33.9731Z" fill="url(#paint16_linear_10270_11234)"/>
<path d="M22.3343 24.6987C21.089 24.1494 18.9322 23.2251 18.1008 23.0347C18.092 23.0323 18.0832 23.0307 18.0744 23.0283C18.0193 23.0155 17.9642 23.0035 17.909 22.9931C16.7248 22.7598 15.4958 22.9564 14.4195 23.5029L11.7706 24.846C11.3769 25.0456 11.1289 25.4495 11.1289 25.8908V33.9731C11.1289 34.6201 11.6534 35.1446 12.3004 35.1446H14.8486C15.5838 35.123 16.3221 35.2988 16.9822 35.6696L18.9375 36.7675L22.0499 38.4767C22.1442 38.5276 22.2394 38.5763 22.3343 38.6256V24.6987Z" fill="url(#paint17_linear_10270_11234)"/>
<path d="M22.3343 24.6987C21.089 24.1494 18.9322 23.2251 18.1008 23.0347C18.092 23.0323 18.0832 23.0307 18.0744 23.0283C18.0193 23.0155 17.9642 23.0035 17.909 22.9931C16.7248 22.7598 15.4958 22.9564 14.4195 23.5029L11.7706 24.846C11.3769 25.0456 11.1289 25.4495 11.1289 25.8908V33.9731C11.1289 34.6201 11.6534 35.1446 12.3004 35.1446H14.8486C15.5838 35.123 16.3221 35.2988 16.9822 35.6696L18.9375 36.7675L22.0499 38.4767C22.1442 38.5276 22.2394 38.5763 22.3343 38.6256V24.6987Z" fill="url(#paint18_linear_10270_11234)"/>
<path d="M14.3339 36.6251H10.1066C9.27971 36.6251 8.60938 35.9548 8.60938 35.1279V23.6788C8.60938 22.852 9.27971 22.1816 10.1066 22.1816H14.3339C15.1608 22.1816 15.8311 22.852 15.8311 23.6788V35.128C15.8311 35.9548 15.1608 36.6251 14.3339 36.6251Z" fill="url(#paint19_linear_10270_11234)"/>
<path d="M8.60938 30.373V35.1288C8.60938 35.9557 9.27971 36.626 10.1066 36.626H14.3339C15.1608 36.626 15.8311 35.9557 15.8311 35.1288V30.373H8.60938Z" fill="url(#paint20_linear_10270_11234)"/>
<path d="M11.9333 37.4468H8.6676C7.7466 37.4468 7 36.7002 7 35.7792V23.027C7 22.106 7.7466 21.3594 8.6676 21.3594H11.9333C12.8543 21.3594 13.6009 22.106 13.6009 23.027V35.7792C13.6009 36.7002 12.8543 37.4468 11.9333 37.4468Z" fill="url(#paint21_linear_10270_11234)"/>
<path d="M7 30.4824V35.7795C7 36.7005 7.7466 37.4471 8.6676 37.4471H11.9333C12.8543 37.4471 13.6009 36.7005 13.6009 35.7795V30.4824H7Z" fill="url(#paint22_linear_10270_11234)"/>
<path d="M15.9554 25.0123C19.4602 25.0123 22.3014 22.1711 22.3014 18.6663C22.3014 15.1615 19.4602 12.3203 15.9554 12.3203C12.4506 12.3203 9.60938 15.1615 9.60938 18.6663C9.60938 22.1711 12.4506 25.0123 15.9554 25.0123Z" fill="url(#paint23_linear_10270_11234)"/>
<path d="M11.4683 23.153C13.9466 25.6313 17.9647 25.6313 20.4429 23.153C21.9553 21.6406 22.5429 19.555 22.2095 17.5957H9.70188C9.36834 19.5551 9.95601 21.6407 11.4683 23.153Z" fill="url(#paint24_linear_10270_11234)"/>
<path d="M13.8711 21.4455L17.2946 24.869C18.4483 24.6211 19.5466 24.0506 20.4432 23.1541C21.3397 22.2576 21.9101 21.1592 22.158 20.0055L18.7346 16.582L13.8711 21.4455Z" fill="url(#paint25_linear_10270_11234)"/>
<path d="M17.5672 18.6661L18.7338 17.4995C18.9873 17.2459 18.9873 16.8348 18.7338 16.5813L18.0399 15.8874C17.7864 15.6339 17.3753 15.6339 17.1217 15.8874L15.9551 17.054L14.7885 15.8874C14.535 15.6339 14.1239 15.6339 13.8703 15.8874L13.1765 16.5813C12.9229 16.8348 12.9229 17.2459 13.1765 17.4995L14.3431 18.6661L13.1765 19.8327C12.9229 20.0862 12.9229 20.4973 13.1765 20.7509L13.8703 21.4447C14.1239 21.6983 14.535 21.6983 14.7885 21.4447L15.9551 20.2781L17.1217 21.4447C17.3753 21.6983 17.7864 21.6983 18.0399 21.4447L18.7338 20.7509C18.9873 20.4973 18.9873 20.0862 18.7338 19.8327L17.5672 18.6661Z" fill="white"/>
</g>
<defs>
<linearGradient id="paint0_linear_10270_11234" x1="27.6392" y1="32.5858" x2="27.9981" y2="34.1716" gradientUnits="userSpaceOnUse">
<stop stop-color="#FFDFCF"/>
<stop offset="1" stop-color="#FFA78F"/>
</linearGradient>
<linearGradient id="paint1_linear_10270_11234" x1="29.6662" y1="32.2694" x2="30.412" y2="35.9984" gradientUnits="userSpaceOnUse">
<stop stop-color="#FFDFCF"/>
<stop offset="1" stop-color="#FFA78F"/>
</linearGradient>
<linearGradient id="paint2_linear_10270_11234" x1="31.5698" y1="33.1412" x2="31.6231" y2="37.5627" gradientUnits="userSpaceOnUse">
<stop stop-color="#FFDFCF"/>
<stop offset="1" stop-color="#FFA78F"/>
</linearGradient>
<linearGradient id="paint3_linear_10270_11234" x1="25.6511" y1="11.6591" x2="32.2844" y2="14.9924" gradientUnits="userSpaceOnUse">
<stop stop-color="#F89580"/>
<stop offset="1" stop-color="#C4573A"/>
</linearGradient>
<linearGradient id="paint4_linear_10270_11234" x1="29.6252" y1="11.1717" x2="32.0918" y2="16.4827" gradientUnits="userSpaceOnUse">
<stop stop-color="#C4573A" stop-opacity="0"/>
<stop offset="0.2433" stop-color="#BB5438" stop-opacity="0.243"/>
<stop offset="0.6287" stop-color="#A44B33" stop-opacity="0.629"/>
<stop offset="1" stop-color="#883F2E"/>
</linearGradient>
<linearGradient id="paint5_linear_10270_11234" x1="30.0594" y1="13.9539" x2="25.215" y2="11.865" gradientUnits="userSpaceOnUse">
<stop stop-color="#C4573A" stop-opacity="0"/>
<stop offset="0.2433" stop-color="#BB5438" stop-opacity="0.243"/>
<stop offset="0.6287" stop-color="#A44B33" stop-opacity="0.629"/>
<stop offset="1" stop-color="#883F2E"/>
</linearGradient>
<linearGradient id="paint6_linear_10270_11234" x1="29.5326" y1="13.2225" x2="29.5326" y2="15.8985" gradientUnits="userSpaceOnUse">
<stop stop-color="#C4573A" stop-opacity="0"/>
<stop offset="0.2433" stop-color="#BB5438" stop-opacity="0.243"/>
<stop offset="0.6287" stop-color="#A44B33" stop-opacity="0.629"/>
<stop offset="1" stop-color="#883F2E"/>
</linearGradient>
<linearGradient id="paint7_linear_10270_11234" x1="22.7775" y1="20.1115" x2="32.0001" y2="29.3341" gradientUnits="userSpaceOnUse">
<stop stop-color="#F89580"/>
<stop offset="1" stop-color="#C4573A"/>
</linearGradient>
<linearGradient id="paint8_linear_10270_11234" x1="23.2394" y1="27.5571" x2="16.1283" y2="24.7127" gradientUnits="userSpaceOnUse">
<stop stop-color="#C4573A" stop-opacity="0"/>
<stop offset="0.2433" stop-color="#BB5438" stop-opacity="0.243"/>
<stop offset="0.6287" stop-color="#A44B33" stop-opacity="0.629"/>
<stop offset="1" stop-color="#883F2E"/>
</linearGradient>
<linearGradient id="paint9_linear_10270_11234" x1="33.0806" y1="21.8058" x2="33.0806" y2="14.7127" gradientUnits="userSpaceOnUse">
<stop stop-color="#C4573A" stop-opacity="0"/>
<stop offset="0.2433" stop-color="#BB5438" stop-opacity="0.243"/>
<stop offset="0.6287" stop-color="#A44B33" stop-opacity="0.629"/>
<stop offset="1" stop-color="#883F2E"/>
</linearGradient>
<linearGradient id="paint10_linear_10270_11234" x1="29.1644" y1="26.8995" x2="28.4422" y2="24.3328" gradientUnits="userSpaceOnUse">
<stop stop-color="#C4573A" stop-opacity="0"/>
<stop offset="0.2433" stop-color="#BB5438" stop-opacity="0.243"/>
<stop offset="0.6287" stop-color="#A44B33" stop-opacity="0.629"/>
<stop offset="1" stop-color="#883F2E"/>
</linearGradient>
<linearGradient id="paint11_linear_10270_11234" x1="31.719" y1="29.2481" x2="26.2171" y2="22.8291" gradientUnits="userSpaceOnUse">
<stop stop-color="#C4573A" stop-opacity="0"/>
<stop offset="0.2433" stop-color="#BB5438" stop-opacity="0.243"/>
<stop offset="0.6287" stop-color="#A44B33" stop-opacity="0.629"/>
<stop offset="1" stop-color="#883F2E"/>
</linearGradient>
<linearGradient id="paint12_linear_10270_11234" x1="33.0597" y1="38.5444" x2="27.193" y2="29.9444" gradientUnits="userSpaceOnUse">
<stop stop-color="#C4573A" stop-opacity="0"/>
<stop offset="0.2433" stop-color="#BB5438" stop-opacity="0.243"/>
<stop offset="0.6287" stop-color="#A44B33" stop-opacity="0.629"/>
<stop offset="1" stop-color="#883F2E"/>
</linearGradient>
<linearGradient id="paint13_linear_10270_11234" x1="27.912" y1="23.3102" x2="34.2622" y2="27.0522" gradientUnits="userSpaceOnUse">
<stop stop-color="#FEE45A"/>
<stop offset="1" stop-color="#FEA613"/>
</linearGradient>
<linearGradient id="paint14_linear_10270_11234" x1="34.2379" y1="31.7592" x2="30.2823" y2="28.2703" gradientUnits="userSpaceOnUse">
<stop stop-color="#DC8758" stop-opacity="0"/>
<stop offset="0.2153" stop-color="#DD8654" stop-opacity="0.215"/>
<stop offset="0.4291" stop-color="#E28448" stop-opacity="0.429"/>
<stop offset="0.6424" stop-color="#EA8034" stop-opacity="0.642"/>
<stop offset="0.8542" stop-color="#F47B18" stop-opacity="0.854"/>
<stop offset="1" stop-color="#FE7701"/>
</linearGradient>
<linearGradient id="paint15_linear_10270_11234" x1="29.5332" y1="15.2671" x2="29.5332" y2="16.3691" gradientUnits="userSpaceOnUse">
<stop stop-color="#D1F19E"/>
<stop offset="1" stop-color="#8BC727"/>
</linearGradient>
<linearGradient id="paint16_linear_10270_11234" x1="24.9162" y1="25.6289" x2="26.7828" y2="41.9622" gradientUnits="userSpaceOnUse">
<stop stop-color="#FFDFCF"/>
<stop offset="1" stop-color="#FFA78F"/>
</linearGradient>
<linearGradient id="paint17_linear_10270_11234" x1="18.6547" y1="30.8263" x2="14.6982" y2="31.1227" gradientUnits="userSpaceOnUse">
<stop stop-color="#F89580" stop-opacity="0"/>
<stop offset="0.2599" stop-color="#F2917C" stop-opacity="0.261"/>
<stop offset="0.5954" stop-color="#E2856F" stop-opacity="0.597"/>
<stop offset="0.9709" stop-color="#C8725B" stop-opacity="0.974"/>
<stop offset="0.9972" stop-color="#C5715A"/>
</linearGradient>
<linearGradient id="paint18_linear_10270_11234" x1="17.0734" y1="29.9005" x2="13.5624" y2="26.8339" gradientUnits="userSpaceOnUse">
<stop stop-color="#F89580" stop-opacity="0"/>
<stop offset="0.2599" stop-color="#F2917C" stop-opacity="0.261"/>
<stop offset="0.5954" stop-color="#E2856F" stop-opacity="0.597"/>
<stop offset="0.9709" stop-color="#C8725B" stop-opacity="0.974"/>
<stop offset="0.9972" stop-color="#C5715A"/>
</linearGradient>
<linearGradient id="paint19_linear_10270_11234" x1="12.9961" y1="29.5426" x2="16.4308" y2="30.1591" gradientUnits="userSpaceOnUse">
<stop stop-color="#EAF9FA"/>
<stop offset="1" stop-color="#A8D3D8"/>
</linearGradient>
<linearGradient id="paint20_linear_10270_11234" x1="12.2203" y1="33.0151" x2="12.2203" y2="37.1656" gradientUnits="userSpaceOnUse">
<stop stop-color="#7CA1B1" stop-opacity="0"/>
<stop offset="1" stop-color="#7CA1B1"/>
</linearGradient>
<linearGradient id="paint21_linear_10270_11234" x1="7.18993" y1="27.7998" x2="12.9247" y2="30.7558" gradientUnits="userSpaceOnUse">
<stop stop-color="#5A5A5A"/>
<stop offset="1" stop-color="#444444"/>
</linearGradient>
<linearGradient id="paint22_linear_10270_11234" x1="10.3005" y1="33.4252" x2="10.3005" y2="38.0482" gradientUnits="userSpaceOnUse">
<stop stop-color="#433F43" stop-opacity="0"/>
<stop offset="0.3007" stop-color="#3C393C" stop-opacity="0.301"/>
<stop offset="0.7373" stop-color="#292729" stop-opacity="0.737"/>
<stop offset="1" stop-color="#1A1A1A"/>
</linearGradient>
<linearGradient id="paint23_linear_10270_11234" x1="12.0678" y1="14.7788" x2="20.5731" y2="23.284" gradientUnits="userSpaceOnUse">
<stop stop-color="#FD8087"/>
<stop offset="1" stop-color="#FD3E2B"/>
</linearGradient>
<linearGradient id="paint24_linear_10270_11234" x1="15.9557" y1="19.2957" x2="15.9557" y2="24.4088" gradientUnits="userSpaceOnUse">
<stop stop-color="#E41F2D" stop-opacity="0"/>
<stop offset="0.3461" stop-color="#DE1E2B" stop-opacity="0.346"/>
<stop offset="0.8036" stop-color="#CE1B28" stop-opacity="0.804"/>
<stop offset="1" stop-color="#C41926"/>
</linearGradient>
<linearGradient id="paint25_linear_10270_11234" x1="20.3376" y1="23.0484" x2="16.1328" y2="18.8437" gradientUnits="userSpaceOnUse">
<stop stop-color="#E41F2D" stop-opacity="0"/>
<stop offset="0.3461" stop-color="#DE1E2B" stop-opacity="0.346"/>
<stop offset="0.8036" stop-color="#CE1B28" stop-opacity="0.804"/>
<stop offset="1" stop-color="#C41926"/>
</linearGradient>
<clipPath id="clip0_10270_11234">
<rect width="34" height="34" fill="white" transform="translate(7 7)"/>
</clipPath>
</defs>
</svg>
