<svg width="48" height="48" viewBox="0 0 48 48" fill="none" xmlns="http://www.w3.org/2000/svg">
<g clip-path="url(#clip0_10270_11216)">
<path d="M22.9375 18.6562C23.2828 18.6775 23.6334 18.6881 24 18.6881C24.3666 18.6881 24.7172 18.6775 25.0625 18.6562L25.5938 31.2681C24.5433 31.4948 23.4567 31.4948 22.4062 31.2681L22.9375 18.6562Z" fill="#A67C52"/>
<path d="M24 18.6881C24.3666 18.6881 24.7172 18.6775 25.0625 18.6562L25.5938 31.2681C25.0701 31.3815 24.5358 31.4385 24 31.4381V18.6881Z" fill="#7D5D3E"/>
<path d="M35.6875 7.53125C35.6875 7.53125 27.0759 12.4878 24 18.6875C24.0434 18.1536 24.0434 17.617 24 17.0831C24.2178 13.9912 25.8541 7.53125 35.6875 7.53125Z" fill="#8CC63F"/>
<path d="M24 17.0831C23.9566 17.617 23.9566 18.1536 24 18.6875C20.9241 12.4878 12.3125 7.53656 12.3125 7.53656V7.53125C22.1459 7.53125 23.7822 13.9912 24 17.0831Z" fill="#8CC63F"/>
<path d="M40.4688 26.6565V21.344L36.8456 20.6215C36.541 19.4603 36.078 18.3466 35.4697 17.3118L37.5256 14.2358L34.8874 11.5977C34.1233 13.8643 32.5959 15.7953 30.5663 17.061C31.9578 18.3758 32.9227 20.0779 33.3361 21.9471C33.7495 23.8164 33.5923 25.7667 32.8849 27.5456C32.1774 29.3245 30.9523 30.8501 29.3681 31.925C27.784 32.9998 25.9136 33.5745 23.9992 33.5745C22.0848 33.5745 20.2145 32.9998 18.6303 31.925C17.0461 30.8501 15.821 29.3245 15.1136 27.5456C14.4061 25.7667 14.2489 23.8164 14.6623 21.9471C15.0757 20.0779 16.0406 18.3758 17.4322 17.061C15.4023 15.7959 13.8745 13.8654 13.1094 11.5992L10.4744 14.2358L12.5303 17.3118C11.922 18.3466 11.459 19.4603 11.1544 20.6215L7.53125 21.344V26.6565L11.1544 27.379C11.459 28.5401 11.922 29.6538 12.5303 30.6887L10.4744 33.7646L14.2356 37.5258L17.3116 35.4699C18.3464 36.0783 19.4601 36.5412 20.6212 36.8458L21.3438 40.469H26.6562L27.3788 36.8458C28.5399 36.5412 29.6536 36.0783 30.6884 35.4699L33.7644 37.5258L37.5256 33.7646L35.4697 30.6887C36.078 29.6538 36.541 28.5401 36.8456 27.379L40.4688 26.6565Z" fill="#B3B3B3"/>
<path d="M25.785 36.8457L25.0625 40.4688H26.6562L27.3788 36.8457H25.785Z" fill="#808080"/>
<path d="M40.4682 26.6565V21.344L36.845 20.6215C36.5404 19.4603 36.0774 18.3466 35.4691 17.3118L37.525 14.2358L34.8868 11.5977C34.7546 11.9637 34.5925 12.3414 34.4124 12.717L35.9313 14.2358L33.8753 17.3118C34.4837 18.3466 34.9467 19.4603 35.2513 20.6215L38.8744 21.344V26.6565L35.2513 27.379C34.9467 28.5401 34.4837 29.6538 33.8753 30.6887L35.9313 33.7646L32.8086 36.8873L33.7648 37.5248L37.5261 33.7635L35.4702 30.6876C36.0785 29.6527 36.5415 28.539 36.8461 27.3779L40.4682 26.6565Z" fill="#808080"/>
<path d="M22.2148 36.8457L22.9373 40.4688H21.3436L20.6211 36.8457H22.2148Z" fill="#CCCCCC"/>
<path d="M7.53125 26.6565V21.344L11.1544 20.6215C11.459 19.4603 11.922 18.3466 12.5303 17.3118L10.4744 14.2358L13.1126 11.5977C13.2448 11.9637 13.4069 12.3414 13.587 12.717L12.0681 14.2358L14.1241 17.3118C13.5157 18.3466 13.0527 19.4603 12.7481 20.6215L9.125 21.344V26.6565L12.7481 27.379C13.0527 28.5401 13.5157 29.6538 14.1241 30.6887L12.0681 33.7646L15.1908 36.8873L14.2346 37.5248L10.4744 33.7646L12.5303 30.6887C11.922 29.6538 11.459 28.5401 11.1544 27.379L7.53125 26.6565Z" fill="#CCCCCC"/>
<path d="M31.4383 24.0001C31.4401 25.2703 31.1166 26.5198 30.4986 27.6295C29.8806 28.7392 28.9887 29.6721 27.9079 30.3394C26.8271 31.0066 25.5934 31.386 24.3244 31.4413C23.0554 31.4965 21.7934 31.2259 20.6587 30.6551C19.524 30.0843 18.5543 29.2325 17.8422 28.1807C17.1301 27.1289 16.6992 25.9123 16.5905 24.6468C16.4819 23.3812 16.6992 22.109 17.2218 20.9512C17.7443 19.7935 18.5546 18.7889 19.5755 18.0331C18.8269 17.7915 18.1082 17.4659 17.433 17.0625C16.0414 18.3772 15.0765 20.0794 14.6631 21.9486C14.2497 23.8179 14.4069 25.7682 15.1144 27.5471C15.8218 29.326 17.0469 30.8516 18.6311 31.9264C20.2153 33.0013 22.0856 33.5759 24 33.5759C25.9144 33.5759 27.7848 33.0013 29.3689 31.9264C30.9531 30.8516 32.1782 29.326 32.8857 27.5471C33.5931 25.7682 33.7503 23.8179 33.3369 21.9486C32.9235 20.0794 31.9586 18.3772 30.5671 17.0625C29.892 17.466 29.1734 17.7918 28.4251 18.0336C29.359 18.7231 30.1182 19.6221 30.6415 20.6584C31.1649 21.6946 31.4378 22.8392 31.4383 24.0001Z" fill="#666666"/>
<path d="M34.8874 11.5974C35.3645 10.292 35.6344 8.92007 35.6875 7.53125C33.5289 8.82776 31.4869 10.3091 29.5845 11.9587C28.5535 12.8494 27.5819 13.8066 26.6759 14.8242C26.1552 15.412 25.667 16.0278 25.2134 16.6688C24.7583 17.3099 24.3527 17.9848 24 18.6875C24.3666 18.6875 24.7172 18.6769 25.0625 18.6556C26.2052 18.5932 27.3352 18.3836 28.4242 18.0319C29.1726 17.7901 29.8912 17.4643 30.5663 17.0608C32.5959 15.7951 34.1233 13.8641 34.8874 11.5974Z" fill="#009245"/>
<path d="M19.5747 18.0335C20.6643 18.3845 21.7945 18.5938 22.9375 18.6562C23.2828 18.6774 23.6334 18.688 24 18.688C23.6473 17.9852 23.2415 17.3104 22.7861 16.6693C22.3327 16.0278 21.8444 15.4117 21.3236 14.8237C20.4174 13.806 19.4454 12.8487 18.4139 11.9582C16.512 10.3105 14.4706 8.83123 12.3125 7.53711C12.3647 8.92453 12.6336 10.2953 13.1094 11.5996C13.8737 13.8661 15.401 15.7971 17.4306 17.063C18.1063 17.4665 18.8256 17.7921 19.5747 18.0335Z" fill="#009245"/>
</g>
<defs>
<clipPath id="clip0_10270_11216">
<rect width="34" height="34" fill="white" transform="translate(7 7)"/>
</clipPath>
</defs>
</svg>
