<svg width="48" height="48" viewBox="0 0 48 48" fill="none" xmlns="http://www.w3.org/2000/svg">
<g clip-path="url(#clip0_10270_11192)">
<path d="M27.9151 8.82104C26.15 8.38283 25.147 7.73437 24.599 7.23353C24.2582 6.92216 23.7405 6.92216 23.3998 7.23353C22.8518 7.73437 21.8488 8.38283 20.0837 8.82104C16.168 9.79316 16.168 13.6926 16.168 13.6926V17.7247H31.8307V13.6926C31.8307 13.6926 31.8307 9.79323 27.9151 8.82104Z" fill="#996123"/>
<path d="M20.0221 8.83789C16.1686 9.83564 16.168 13.6932 16.168 13.6932V17.7252H17.7199V13.3699C17.7199 13.3699 17.7204 10.4146 20.0221 8.83789Z" fill="#87511B"/>
<path d="M17.7209 16.9004C16.64 16.9004 15.7637 17.6341 15.7637 18.5393C15.7637 19.4446 16.64 20.1783 17.7209 20.1783H17.9937V16.9005L17.7209 16.9004Z" fill="#DD9A5E"/>
<path d="M30.2974 16.9004H30.0566V20.151H30.2974V20.1783C31.3784 20.1783 32.2547 19.4445 32.2547 18.5392C32.2547 17.6341 31.3784 16.9004 30.2974 16.9004Z" fill="#DD9A5E"/>
<path d="M30.2974 16.9004V16.9277H30.0566V20.1783H30.2974C31.3784 20.1783 32.2547 19.4445 32.2547 18.5394C32.2547 17.6341 31.3784 16.9004 30.2974 16.9004Z" fill="#DD9A5E"/>
<path d="M15.9504 17.8398C15.3411 18.9196 16.2808 20.1781 17.7207 20.1781H17.9934V18.7796C17.9216 18.7636 16.5681 18.9346 15.9504 17.8398Z" fill="#CE884E"/>
<path d="M30.0566 18.7796V20.178H30.2974C31.3784 20.178 32.2547 19.4443 32.2547 18.5391C32.2547 18.2889 32.1875 18.0519 32.0678 17.8398C31.4657 18.9069 30.0909 18.7718 30.0566 18.7796Z" fill="#CE884E"/>
<path d="M36.0849 39.1905L34.5899 31.6822C34.3075 30.2673 33.2679 29.6919 32.6952 29.4783C32.6883 29.4763 32.303 29.3626 32.31 29.3647L26.6459 27.9609C26.5585 29.3469 25.4074 30.4441 23.9993 30.4441C22.5953 30.4441 21.447 29.3531 21.3538 27.9727L21.3469 27.9696L15.6887 29.3647C15.5535 29.4046 15.2865 29.4834 15.3036 29.4783C14.7308 29.692 13.6913 30.2673 13.4088 31.6822L11.9136 39.1905C11.838 39.7244 11.83 41.0003 13.4858 41.0003C14.3762 41.0003 33.6198 41.0003 34.5128 41.0003C36.1686 41.0003 36.1605 39.7244 36.0849 39.1905Z" fill="#635E5E"/>
<path d="M13.624 39.0527L15.119 30.973C15.261 30.2078 15.5942 29.6709 15.9632 29.2969L15.6886 29.3646H15.6887C15.49 29.4232 15.2938 29.4812 15.3035 29.4782C14.7307 29.6919 13.6912 30.2672 13.4087 31.6821L11.9136 39.1905C11.838 39.7243 11.83 41.0003 13.4858 41.0003H15.1961C13.5404 41.0003 13.5484 39.6272 13.624 39.0527Z" fill="#514F4F"/>
<path d="M26.6527 26.2383C26.6465 26.2411 26.6404 26.2438 26.6342 26.2466V26.2459C26.6338 26.2461 26.6333 26.2464 26.6327 26.2466V26.2383C25.0203 26.9859 23.0997 27.0415 21.3675 26.2383V26.2466H21.3674C21.367 26.2464 21.3664 26.2461 21.366 26.2459V26.2466C21.3599 26.2438 21.3537 26.2412 21.3477 26.2383V27.9698L21.354 27.9656C21.4435 29.3494 22.5937 30.4443 24.0002 30.4443C25.4082 30.4443 26.5594 29.3471 26.6467 27.9611L26.6527 27.9575C26.6527 27.433 26.6527 26.9819 26.6527 26.2383Z" fill="#DD9A5E"/>
<path d="M23.058 26.7476C22.4631 26.6569 21.8956 26.4831 21.3675 26.2383V26.2466H21.3674C21.367 26.2464 21.3664 26.2461 21.366 26.2459V26.2466C21.3599 26.2438 21.3537 26.2412 21.3477 26.2383V27.9698L21.354 27.9656C21.4224 29.0228 22.1102 29.9107 23.058 30.2713V26.7476Z" fill="#CE884E"/>
<path d="M26.7755 35.6504C26.4594 35.6504 26.2031 35.9067 26.2031 36.2228V37.5851C26.2031 38.3089 26.8954 38.9011 27.7416 38.9011H27.7761C28.6222 38.9011 29.3145 38.3089 29.3145 37.5851V36.2228C29.3145 35.9067 29.0583 35.6504 28.7421 35.6504H26.7755Z" fill="#514F4F"/>
<path d="M27.7864 37.5851V36.2228C27.7864 35.9067 28.0426 35.6504 28.3588 35.6504H26.7755C26.4594 35.6504 26.2031 35.9067 26.2031 36.2228V37.5851C26.2031 38.6389 27.5591 39.2186 28.5505 38.7207C28.0944 38.4916 27.7864 38.0677 27.7864 37.5851Z" fill="#3F3C3C"/>
<path d="M29.5908 14.6753C30.0243 14.8989 30.2979 15.3453 30.2979 15.833V20.7384C30.2979 24.112 27.642 26.8645 24.3074 27.02C20.7076 27.1879 17.7207 24.2526 17.7207 20.6489V15.747C17.7207 15.257 17.9954 14.8082 18.4328 14.5872C20.1056 13.7423 24.5292 12.0652 29.5908 14.6753Z" fill="#EDAE6B"/>
<path d="M19.4311 20.6481V14.9253C19.4311 14.5691 19.5768 14.2351 19.8241 13.9941C19.253 14.1967 18.7826 14.4098 18.4328 14.5865C17.9954 14.8074 17.7207 15.2563 17.7207 15.7463V20.6481C17.7207 24.2518 20.7076 27.1872 24.3074 27.0193C24.4975 27.0104 24.6852 26.9927 24.8705 26.9673C21.8048 26.5421 19.4311 23.8608 19.4311 20.6481Z" fill="#DD9A5E"/>
<path d="M17.1044 35.6498C17.1044 35.3664 16.8746 35.1367 16.5912 35.1367C16.3079 35.1367 16.0781 35.3664 16.0781 35.6498V40.9991H17.1044V35.6498Z" fill="#514F4F"/>
<path d="M31.9403 40.9991V35.6498C31.9403 35.3664 31.7106 35.1367 31.4272 35.1367C31.1438 35.1367 30.9141 35.3664 30.9141 35.6498V40.9991H31.9403Z" fill="#514F4F"/>
</g>
<defs>
<clipPath id="clip0_10270_11192">
<rect width="34" height="34" fill="white" transform="translate(7 7)"/>
</clipPath>
</defs>
</svg>
